G04*
G04 #@! TF.GenerationSoftware,Altium Limited,Altium Designer,21.0.9 (235)*
G04*
G04 Layer_Color=255*
%FSTAX24Y24*%
%MOIN*%
G70*
G04*
G04 #@! TF.SameCoordinates,BE33CD37-818E-4C07-995D-9A106440EC1D*
G04*
G04*
G04 #@! TF.FilePolarity,Positive*
G04*
G01*
G75*
%ADD29O,0.1772X0.1378*%
%ADD30C,0.0787*%
%ADD31R,0.0787X0.0787*%
%ADD32C,0.0591*%
%ADD33R,0.0591X0.0591*%
%ADD34C,0.0750*%
%ADD35O,0.1000X0.0660*%
%ADD36O,0.1600X0.1000*%
%ADD37O,0.1000X0.1600*%
%ADD38O,0.0787X0.1200*%
%ADD39R,0.1000X0.0650*%
%ADD40O,0.1000X0.0650*%
%ADD41R,0.0787X0.0787*%
D29*
X03885Y03455D02*
D03*
X0363D02*
D03*
X0338D02*
D03*
Y02815D02*
D03*
X03635D02*
D03*
X0388D02*
D03*
X0148Y03735D02*
D03*
X01735D02*
D03*
X01985D02*
D03*
Y04375D02*
D03*
X0173D02*
D03*
X01485D02*
D03*
D30*
X03725Y046984D02*
D03*
X037284Y0394D02*
D03*
D31*
X03725Y045016D02*
D03*
D32*
X03065Y0482D02*
D03*
X02575Y048234D02*
D03*
X0249Y043158D02*
D03*
X02175Y034592D02*
D03*
D33*
X03065Y047216D02*
D03*
X02575Y04725D02*
D03*
X0249Y044142D02*
D03*
X02175Y033608D02*
D03*
D34*
X0333Y04465D02*
D03*
Y0461D02*
D03*
X027Y04085D02*
D03*
X02555D02*
D03*
X024Y03935D02*
D03*
Y0408D02*
D03*
Y03615D02*
D03*
Y0376D02*
D03*
X0256Y03645D02*
D03*
X02705D02*
D03*
X0245Y0319D02*
D03*
Y03335D02*
D03*
X02175Y0297D02*
D03*
Y02825D02*
D03*
X0264Y0299D02*
D03*
Y02845D02*
D03*
X031Y0408D02*
D03*
Y03935D02*
D03*
X0287Y04225D02*
D03*
Y0437D02*
D03*
D35*
X03095Y04465D02*
D03*
Y04365D02*
D03*
Y04265D02*
D03*
X02875Y0389D02*
D03*
Y0399D02*
D03*
Y0409D02*
D03*
X0261Y0376D02*
D03*
Y0386D02*
D03*
Y0396D02*
D03*
X02425Y0286D02*
D03*
Y0296D02*
D03*
Y0306D02*
D03*
D36*
X0146Y0461D02*
D03*
D37*
X0131Y0481D02*
D03*
X0156D02*
D03*
D38*
X015093Y02905D02*
D03*
Y03105D02*
D03*
X015083Y03305D02*
D03*
X013093D02*
D03*
Y03106D02*
D03*
Y02905D02*
D03*
D39*
X02875Y03545D02*
D03*
X0264Y0317D02*
D03*
D40*
X02875Y03745D02*
D03*
X0264Y0337D02*
D03*
D41*
X035316Y0394D02*
D03*
M02*
