G04*
G04 #@! TF.GenerationSoftware,Altium Limited,Altium Designer,21.0.9 (235)*
G04*
G04 Layer_Color=128*
%FSTAX24Y24*%
%MOIN*%
G70*
G04*
G04 #@! TF.SameCoordinates,BE33CD37-818E-4C07-995D-9A106440EC1D*
G04*
G04*
G04 #@! TF.FilePolarity,Positive*
G04*
G01*
G75*
%ADD42C,0.0020*%
D42*
X038555Y03455D02*
X039145D01*
X03885Y034255D02*
Y034845D01*
X036005Y03455D02*
X036595D01*
X0363Y034255D02*
Y034845D01*
X033505Y03455D02*
X034095D01*
X0338Y034255D02*
Y034845D01*
X033505Y02815D02*
X034095D01*
X0338Y027855D02*
Y028445D01*
X036055Y02815D02*
X036645D01*
X03635Y027855D02*
Y028445D01*
X038505Y02815D02*
X039095D01*
X0388Y027855D02*
Y028445D01*
X037073Y046984D02*
X037427D01*
X03725Y046807D02*
Y047161D01*
X037073Y045016D02*
X037427D01*
X03725Y044839D02*
Y045193D01*
X030493Y0482D02*
X030807D01*
X03065Y048043D02*
Y048357D01*
X030493Y047216D02*
X030807D01*
X03065Y047058D02*
Y047373D01*
X033143Y04465D02*
X033457D01*
X0333Y044493D02*
Y044807D01*
X033143Y0461D02*
X033457D01*
X0333Y045943D02*
Y046257D01*
X03079Y04465D02*
X03111D01*
X03095Y04449D02*
Y04481D01*
X03079Y04365D02*
X03111D01*
X03095Y04349D02*
Y04381D01*
X03079Y04265D02*
X03111D01*
X03095Y04249D02*
Y04281D01*
X01435Y0461D02*
X01485D01*
X0146Y04585D02*
Y04635D01*
X01285Y0481D02*
X01335D01*
X0131Y04785D02*
Y04835D01*
X01535Y0481D02*
X01585D01*
X0156Y04785D02*
Y04835D01*
X014505Y03735D02*
X015095D01*
X0148Y037055D02*
Y037645D01*
X017055Y03735D02*
X017645D01*
X01735Y037055D02*
Y037645D01*
X019555Y03735D02*
X020145D01*
X01985Y037055D02*
Y037645D01*
X019555Y04375D02*
X020145D01*
X01985Y043455D02*
Y044045D01*
X017005Y04375D02*
X017595D01*
X0173Y043455D02*
Y044045D01*
X014555Y04375D02*
X015145D01*
X01485Y043455D02*
Y044045D01*
X025593Y048234D02*
X025907D01*
X02575Y048077D02*
Y048392D01*
X025593Y04725D02*
X025907D01*
X02575Y047093D02*
Y047407D01*
X024743Y043158D02*
X025057D01*
X0249Y043D02*
Y043315D01*
X024743Y044142D02*
X025057D01*
X0249Y043985D02*
Y0443D01*
X026843Y04085D02*
X027157D01*
X027Y040693D02*
Y041007D01*
X025393Y04085D02*
X025707D01*
X02555Y040693D02*
Y041007D01*
X02859Y0389D02*
X02891D01*
X02875Y03874D02*
Y03906D01*
X02859Y0399D02*
X02891D01*
X02875Y03974D02*
Y04006D01*
X02859Y0409D02*
X02891D01*
X02875Y04074D02*
Y04106D01*
X02594Y0376D02*
X02626D01*
X0261Y03744D02*
Y03776D01*
X02594Y0386D02*
X02626D01*
X0261Y03844D02*
Y03876D01*
X02594Y0396D02*
X02626D01*
X0261Y03944D02*
Y03976D01*
X023843Y03935D02*
X024157D01*
X024Y039193D02*
Y039507D01*
X023843Y0408D02*
X024157D01*
X024Y040643D02*
Y040957D01*
X023843Y03615D02*
X024157D01*
X024Y035993D02*
Y036307D01*
X023843Y0376D02*
X024157D01*
X024Y037443D02*
Y037757D01*
X025443Y03645D02*
X025757D01*
X0256Y036293D02*
Y036607D01*
X026893Y03645D02*
X027207D01*
X02705Y036293D02*
Y036607D01*
X024343Y0319D02*
X024657D01*
X0245Y031743D02*
Y032057D01*
X024343Y03335D02*
X024657D01*
X0245Y033193D02*
Y033507D01*
X021593Y034592D02*
X021907D01*
X02175Y034435D02*
Y03475D01*
X021593Y033608D02*
X021907D01*
X02175Y03345D02*
Y033765D01*
X014893Y02905D02*
X015293D01*
X015093Y02885D02*
Y02925D01*
X014893Y03105D02*
X015293D01*
X015093Y03085D02*
Y03125D01*
X014883Y03305D02*
X015283D01*
X015083Y03285D02*
Y03325D01*
X012893Y03305D02*
X013293D01*
X013093Y03285D02*
Y03325D01*
X012893Y03106D02*
X013293D01*
X013093Y03086D02*
Y03126D01*
X012893Y02905D02*
X013293D01*
X013093Y02885D02*
Y02925D01*
X02409Y0286D02*
X02441D01*
X02425Y02844D02*
Y02876D01*
X02409Y0296D02*
X02441D01*
X02425Y02944D02*
Y02976D01*
X02409Y0306D02*
X02441D01*
X02425Y03044D02*
Y03076D01*
X021593Y0297D02*
X021907D01*
X02175Y029543D02*
Y029857D01*
X021593Y02825D02*
X021907D01*
X02175Y028093D02*
Y028407D01*
X02859Y03545D02*
X02891D01*
X02875Y03529D02*
Y03561D01*
X02859Y03745D02*
X02891D01*
X02875Y03729D02*
Y03761D01*
X02624Y0317D02*
X02656D01*
X0264Y03154D02*
Y03186D01*
X02624Y0337D02*
X02656D01*
X0264Y03354D02*
Y03386D01*
X026243Y0299D02*
X026557D01*
X0264Y029743D02*
Y030057D01*
X026243Y02845D02*
X026557D01*
X0264Y028293D02*
Y028607D01*
X030843Y0408D02*
X031157D01*
X031Y040643D02*
Y040957D01*
X030843Y03935D02*
X031157D01*
X031Y039193D02*
Y039507D01*
X035139Y0394D02*
X035493D01*
X035316Y039223D02*
Y039577D01*
X037107Y0394D02*
X037461D01*
X037284Y039223D02*
Y039577D01*
X028543Y04225D02*
X028857D01*
X0287Y042093D02*
Y042407D01*
X028543Y0437D02*
X028857D01*
X0287Y043543D02*
Y043857D01*
M02*
