M48
;Layer_Color=9474304
;FILE_FORMAT=2:4
INCH,LZ
;TYPE=PLATED
T1F00S00C0.0315
T2F00S00C0.0320
T3F00S00C0.0354
T6F00S00C0.0591
%
T01
X02175Y02825
Y0297
X0264Y0299
Y02845
X0245Y0319
Y03335
X02175Y033608
Y034592
X024Y03615
Y0376
Y03935
Y0408
X02555Y04085
X027
X0287Y04225
Y0437
X0249Y044142
Y043158
X0256Y03645
X02705
X031Y03935
Y0408
X0333Y04465
Y0461
X03065Y047216
Y0482
X02575Y048234
Y04725
T02
X02425Y0286
Y0296
Y0306
X0264Y0317
Y0337
X02875Y03545
Y03745
Y0389
Y0399
Y0409
X03095Y04265
Y04365
Y04465
X0261Y0396
Y0386
Y0376
T03
X035316Y0394
X037284
X03725Y045016
Y046984
T06
X0338Y02815
X03635
X0388
X0148Y03735
X01485Y04375
X0173
X01985
Y03735
X01735
X0338Y03455
X0363
X03885
M30
