G04*
G04 #@! TF.GenerationSoftware,Altium Limited,Altium Designer,21.0.9 (235)*
G04*
G04 Layer_Physical_Order=2*
G04 Layer_Color=16711680*
%FSTAX24Y24*%
%MOIN*%
G70*
G04*
G04 #@! TF.SameCoordinates,BE33CD37-818E-4C07-995D-9A106440EC1D*
G04*
G04*
G04 #@! TF.FilePolarity,Positive*
G04*
G01*
G75*
%ADD13C,0.0150*%
%ADD28C,0.0250*%
%ADD29O,0.1772X0.1378*%
%ADD30C,0.0787*%
%ADD31R,0.0787X0.0787*%
%ADD32C,0.0591*%
%ADD33R,0.0591X0.0591*%
%ADD34C,0.0750*%
%ADD35O,0.1000X0.0660*%
%ADD36O,0.1600X0.1000*%
%ADD37O,0.1000X0.1600*%
%ADD38O,0.0787X0.1200*%
%ADD39R,0.1000X0.0650*%
%ADD40O,0.1000X0.0650*%
%ADD41R,0.0787X0.0787*%
G36*
X021429Y028747D02*
X021455Y028724D01*
X021482Y028703D01*
X02151Y028684D01*
X02154Y028668D01*
X021571Y028655D01*
X021603Y028644D01*
X021637Y028635D01*
X021672Y028629D01*
X021708Y028626D01*
X021746Y028625D01*
X021375Y028254D01*
X021374Y028292D01*
X021371Y028328D01*
X021365Y028363D01*
X021356Y028397D01*
X021345Y028429D01*
X021332Y02846D01*
X021316Y02849D01*
X021297Y028518D01*
X021276Y028545D01*
X021253Y028571D01*
X021429Y028747D01*
D02*
G37*
G36*
X021347Y034366D02*
X021368Y034388D01*
X021386Y03441D01*
X021403Y034432D01*
X021417Y034454D01*
X021428Y034476D01*
X021438Y034499D01*
X021446Y034521D01*
X021451Y034544D01*
X021454Y034566D01*
X021455Y034589D01*
X021747Y034297D01*
X021724Y034296D01*
X021702Y034293D01*
X021679Y034288D01*
X021656Y03428D01*
X021634Y034271D01*
X021612Y034259D01*
X02159Y034245D01*
X021568Y034228D01*
X021546Y03421D01*
X021524Y034189D01*
X021347Y034366D01*
D02*
G37*
G36*
X030423Y045103D02*
X030468Y04506D01*
X030548Y044994D01*
X030584Y044971D01*
X030616Y044955D01*
X030645Y044945D01*
X030671Y044942D01*
X030693Y044946D01*
X030712Y044957D01*
X030728Y044974D01*
X030456Y044586D01*
X030452Y044615D01*
X030444Y044645D01*
X030434Y044675D01*
X030421Y044705D01*
X030405Y044736D01*
X030386Y044767D01*
X030364Y044798D01*
X030339Y044829D01*
X03028Y044893D01*
X030423Y045103D01*
D02*
G37*
D13*
X02555Y04085D02*
Y0409D01*
X0261Y0396D02*
X026408D01*
D28*
X0156Y0481D02*
X02205D01*
X02465Y0455D02*
X02985D01*
X02205Y0481D02*
X02465Y0455D01*
X0205Y033342D02*
X02175Y034592D01*
X0205Y0295D02*
Y033342D01*
Y0295D02*
X02175Y02825D01*
X0307Y04465D02*
X03095D01*
X02985Y0455D02*
X0307Y04465D01*
D29*
X03885Y03455D02*
D03*
X0363D02*
D03*
X0338D02*
D03*
Y02815D02*
D03*
X03635D02*
D03*
X0388D02*
D03*
X0148Y03735D02*
D03*
X01735D02*
D03*
X01985D02*
D03*
Y04375D02*
D03*
X0173D02*
D03*
X01485D02*
D03*
D30*
X03725Y046984D02*
D03*
X037284Y0394D02*
D03*
D31*
X03725Y045016D02*
D03*
D32*
X03065Y0482D02*
D03*
X02575Y048234D02*
D03*
X0249Y043158D02*
D03*
X02175Y034592D02*
D03*
D33*
X03065Y047216D02*
D03*
X02575Y04725D02*
D03*
X0249Y044142D02*
D03*
X02175Y033608D02*
D03*
D34*
X0333Y04465D02*
D03*
Y0461D02*
D03*
X027Y04085D02*
D03*
X02555D02*
D03*
X024Y03935D02*
D03*
Y0408D02*
D03*
Y03615D02*
D03*
Y0376D02*
D03*
X0256Y03645D02*
D03*
X02705D02*
D03*
X0245Y0319D02*
D03*
Y03335D02*
D03*
X02175Y0297D02*
D03*
Y02825D02*
D03*
X0264Y0299D02*
D03*
Y02845D02*
D03*
X031Y0408D02*
D03*
Y03935D02*
D03*
X0287Y04225D02*
D03*
Y0437D02*
D03*
D35*
X03095Y04465D02*
D03*
Y04365D02*
D03*
Y04265D02*
D03*
X02875Y0389D02*
D03*
Y0399D02*
D03*
Y0409D02*
D03*
X0261Y0376D02*
D03*
Y0386D02*
D03*
Y0396D02*
D03*
X02425Y0286D02*
D03*
Y0296D02*
D03*
Y0306D02*
D03*
D36*
X0146Y0461D02*
D03*
D37*
X0131Y0481D02*
D03*
X0156D02*
D03*
D38*
X015093Y02905D02*
D03*
Y03105D02*
D03*
X015083Y03305D02*
D03*
X013093D02*
D03*
Y03106D02*
D03*
Y02905D02*
D03*
D39*
X02875Y03545D02*
D03*
X0264Y0317D02*
D03*
D40*
X02875Y03745D02*
D03*
X0264Y0337D02*
D03*
D41*
X035316Y0394D02*
D03*
M02*
