G04*
G04 #@! TF.GenerationSoftware,Altium Limited,Altium Designer,21.0.9 (235)*
G04*
G04 Layer_Color=65535*
%FSTAX24Y24*%
%MOIN*%
G70*
G04*
G04 #@! TF.SameCoordinates,BE33CD37-818E-4C07-995D-9A106440EC1D*
G04*
G04*
G04 #@! TF.FilePolarity,Positive*
G04*
G01*
G75*
%ADD10C,0.0050*%
%ADD11C,0.0070*%
%ADD12C,0.0100*%
%ADD13C,0.0150*%
%ADD14R,0.0550X0.0150*%
D10*
X039218Y046D02*
G03*
X039218Y046I-001969J0D01*
G01*
X03189Y047708D02*
G03*
X03189Y047708I-00124J0D01*
G01*
X02699Y047742D02*
G03*
X02699Y047742I-00124J0D01*
G01*
X02614Y04365D02*
G03*
X02614Y04365I-00124J0D01*
G01*
X02299Y0341D02*
G03*
X02299Y0341I-00124J0D01*
G01*
X038268Y0394D02*
G03*
X038268Y0394I-001969J0D01*
G01*
X037245Y04351D02*
Y043903D01*
X037048Y043707D02*
X037442D01*
X030645Y045946D02*
Y04634D01*
X030448Y046143D02*
X030842D01*
X025745Y04598D02*
Y046374D01*
X025548Y046177D02*
X025942D01*
X024905Y045412D02*
Y045018D01*
X025102Y045215D02*
X024708D01*
X021745Y032338D02*
Y032732D01*
X021548Y032535D02*
X021942D01*
X03381Y039405D02*
X034203D01*
X034007Y039602D02*
Y039208D01*
D11*
X033802Y0461D02*
G03*
X033802Y0461I-000502J0D01*
G01*
X03135Y042451D02*
G03*
X031382Y044815I-000524J00119D01*
G01*
X026052Y04085D02*
G03*
X026052Y04085I-000502J0D01*
G01*
X02835Y041099D02*
G03*
X028318Y038735I000524J-00119D01*
G01*
X0257Y039799D02*
G03*
X025668Y037435I000524J-00119D01*
G01*
X024502Y0408D02*
G03*
X024502Y0408I-000502J0D01*
G01*
Y0376D02*
G03*
X024502Y0376I-000502J0D01*
G01*
X027552Y03645D02*
G03*
X027552Y03645I-000502J0D01*
G01*
X025002Y03335D02*
G03*
X025002Y03335I-000502J0D01*
G01*
X02385Y030799D02*
G03*
X023818Y028435I000524J-00119D01*
G01*
X022252Y02825D02*
G03*
X022252Y02825I-000502J0D01*
G01*
X026902Y02845D02*
G03*
X026902Y02845I-000502J0D01*
G01*
X031502Y03935D02*
G03*
X031502Y03935I-000502J0D01*
G01*
X029202Y04225D02*
G03*
X029202Y04225I-000502J0D01*
G01*
X0333Y04505D02*
Y0457D01*
X0303Y04463D02*
X030548Y044803D01*
X0303Y0426D02*
X03056Y04247D01*
X0303Y0426D02*
Y04463D01*
X0108Y0463D02*
Y0496D01*
X0101Y0463D02*
X01555D01*
X0101Y0496D02*
X01555D01*
Y0463D02*
Y0496D01*
X0101Y0463D02*
Y0496D01*
X02595Y04085D02*
X0266D01*
X029152Y038747D02*
X0294Y03892D01*
X02914Y04108D02*
X0294Y04095D01*
Y03892D02*
Y04095D01*
X026502Y037447D02*
X02675Y03762D01*
X02649Y03978D02*
X02675Y03965D01*
Y03762D02*
Y03965D01*
X024Y03975D02*
Y0404D01*
Y03655D02*
Y0372D01*
X026Y03645D02*
X02665D01*
X0245Y0323D02*
Y03295D01*
X015623Y0282D02*
Y03389D01*
X012613Y03404D02*
X015473D01*
X012613Y02805D02*
Y03404D01*
Y02805D02*
X015473D01*
X012463Y03205D02*
X012613D01*
X012463Y03006D02*
Y03205D01*
Y03006D02*
X012613D01*
X015473Y03404D02*
X015623Y03389D01*
X015473Y02805D02*
X015623Y0282D01*
X024652Y028447D02*
X0249Y02862D01*
X02464Y03078D02*
X0249Y03065D01*
Y02862D02*
Y03065D01*
X02175Y02865D02*
Y0293D01*
X02847Y03615D02*
X02904D01*
Y03592D02*
Y03699D01*
X02847D02*
X02904D01*
X02847Y03592D02*
Y03699D01*
X02875Y03565D02*
Y03592D01*
Y03699D02*
Y03725D01*
X02847Y03592D02*
X02904D01*
X02612Y0324D02*
X02669D01*
Y03217D02*
Y03324D01*
X02612D02*
X02669D01*
X02612Y03217D02*
Y03324D01*
X0264Y0319D02*
Y03217D01*
Y03324D02*
Y0335D01*
X02612Y03217D02*
X02669D01*
X0264Y02885D02*
Y0295D01*
X031Y03975D02*
Y0404D01*
X0287Y04265D02*
Y0433D01*
D12*
X04045Y0332D02*
X04215D01*
Y02925D02*
Y0332D01*
X04045Y02925D02*
X04215D01*
X0311Y0326D02*
X0323D01*
X0311Y02975D02*
Y0326D01*
Y02975D02*
X0323D01*
Y02775D02*
X04045D01*
X0323D02*
Y0278D01*
X04045Y02775D02*
Y035D01*
X0323D02*
X04045D01*
X0323Y0278D02*
Y035D01*
X0115Y0387D02*
X0132D01*
X0115D02*
Y04265D01*
X0132D01*
X02135Y0393D02*
X02255D01*
Y04215D01*
X02135D02*
X02255D01*
X0132Y04415D02*
X02135D01*
Y0441D02*
Y04415D01*
X0132Y0369D02*
Y04415D01*
Y0369D02*
X02135D01*
Y0441D01*
D13*
X0163Y0468D02*
X0164Y0467D01*
X0166D01*
X0167Y0468D01*
Y0472D01*
X0166Y0473D01*
X0164D01*
X0163Y0472D01*
Y0471D01*
X0164Y047D01*
X0167D01*
X0169Y0473D02*
Y0469D01*
X0171Y0467D01*
X0173Y0469D01*
Y0473D01*
X0175D02*
Y0467D01*
X0178D01*
X017899Y0468D01*
Y0472D01*
X0178Y0473D01*
X0175D01*
X018499Y0472D02*
X018399Y0473D01*
X018199D01*
X018099Y0472D01*
Y0468D01*
X018199Y0467D01*
X018399D01*
X018499Y0468D01*
X0345Y03565D02*
Y03605D01*
X0347Y03625D01*
X0349Y03605D01*
Y03565D01*
Y03595D01*
X0345D01*
X0351Y03625D02*
Y03575D01*
X0352Y03565D01*
X0354D01*
X0355Y03575D01*
Y03625D01*
X0357D02*
Y03565D01*
X036D01*
X036099Y03575D01*
Y03615D01*
X036Y03625D01*
X0357D01*
X036299D02*
X036499D01*
X036399D01*
Y03565D01*
X036299D01*
X036499D01*
X037099Y03625D02*
X036899D01*
X036799Y03615D01*
Y03575D01*
X036899Y03565D01*
X037099D01*
X037199Y03575D01*
Y03615D01*
X037099Y03625D01*
X038299D02*
X038099D01*
X037999Y03615D01*
Y03575D01*
X038099Y03565D01*
X038299D01*
X038399Y03575D01*
Y03615D01*
X038299Y03625D01*
X038599D02*
Y03575D01*
X038699Y03565D01*
X038899D01*
X038999Y03575D01*
Y03625D01*
X039198D02*
X039598D01*
X039398D01*
Y03565D01*
X01615Y04485D02*
Y04525D01*
X01635Y04545D01*
X01655Y04525D01*
Y04485D01*
Y04515D01*
X01615D01*
X01675Y04545D02*
Y04495D01*
X01685Y04485D01*
X01705D01*
X01715Y04495D01*
Y04545D01*
X01735D02*
Y04485D01*
X01765D01*
X017749Y04495D01*
Y04535D01*
X01765Y04545D01*
X01735D01*
X017949D02*
X018149D01*
X018049D01*
Y04485D01*
X017949D01*
X018149D01*
X018749Y04545D02*
X018549D01*
X018449Y04535D01*
Y04495D01*
X018549Y04485D01*
X018749D01*
X018849Y04495D01*
Y04535D01*
X018749Y04545D01*
X019649D02*
X019849D01*
X019749D01*
Y04485D01*
X019649D01*
X019849D01*
X020149D02*
Y04545D01*
X020549Y04485D01*
Y04545D01*
X0372Y04915D02*
X0371Y04925D01*
X0369D01*
X0368Y04915D01*
Y04875D01*
X0369Y04865D01*
X0371D01*
X0372Y04875D01*
X0374Y04915D02*
X0375Y04925D01*
X0377D01*
X0378Y04915D01*
Y04905D01*
X0377Y04895D01*
X0376D01*
X0377D01*
X0378Y04885D01*
Y04875D01*
X0377Y04865D01*
X0375D01*
X0374Y04875D01*
X03612Y04264D02*
X03602Y04274D01*
X03582D01*
X03572Y04264D01*
Y04224D01*
X03582Y04214D01*
X03602D01*
X03612Y04224D01*
X03672Y04274D02*
X03632D01*
Y04244D01*
X03652Y04254D01*
X03662D01*
X03672Y04244D01*
Y04224D01*
X03662Y04214D01*
X03642D01*
X03632Y04224D01*
X0134Y03535D02*
Y03495D01*
X0136Y03475D01*
X0138Y03495D01*
Y03535D01*
X014Y03475D02*
Y03535D01*
X0143D01*
X0144Y03525D01*
Y03505D01*
X0143Y03495D01*
X014D01*
X0142D02*
X0144Y03475D01*
X0146D02*
X0148D01*
X0147D01*
Y03535D01*
X0146Y03525D01*
X01925Y02865D02*
Y02925D01*
X01955D01*
X01965Y02915D01*
Y02895D01*
X01955Y02885D01*
X01925D01*
X01945D02*
X01965Y02865D01*
X01985D02*
X02005D01*
X01995D01*
Y02925D01*
X01985Y02915D01*
X02035D02*
X02045Y02925D01*
X02065D01*
X02075Y02915D01*
Y02875D01*
X02065Y02865D01*
X02045D01*
X02035Y02875D01*
Y02915D01*
X02715Y0289D02*
Y0295D01*
X02745D01*
X02755Y0294D01*
Y0292D01*
X02745Y0291D01*
X02715D01*
X02735D02*
X02755Y0289D01*
X02775Y029D02*
X02785Y0289D01*
X02805D01*
X02815Y029D01*
Y0294D01*
X02805Y0295D01*
X02785D01*
X02775Y0294D01*
Y0293D01*
X02785Y0292D01*
X02815D01*
X0258Y0351D02*
Y0357D01*
X0261D01*
X0262Y0356D01*
Y0354D01*
X0261Y0353D01*
X0258D01*
X026D02*
X0262Y0351D01*
X0264Y0356D02*
X0265Y0357D01*
X0267D01*
X0268Y0356D01*
Y0355D01*
X0267Y0354D01*
X0268Y0353D01*
Y0352D01*
X0267Y0351D01*
X0265D01*
X0264Y0352D01*
Y0353D01*
X0265Y0354D01*
X0264Y0355D01*
Y0356D01*
X0265Y0354D02*
X0267D01*
X02225Y0364D02*
Y037D01*
X02255D01*
X02265Y0369D01*
Y0367D01*
X02255Y0366D01*
X02225D01*
X02245D02*
X02265Y0364D01*
X02285Y037D02*
X02325D01*
Y0369D01*
X02285Y0365D01*
Y0364D01*
X02275Y0324D02*
Y033D01*
X02305D01*
X02315Y0329D01*
Y0327D01*
X02305Y0326D01*
X02275D01*
X02295D02*
X02315Y0324D01*
X02375Y033D02*
X02355Y0329D01*
X02335Y0327D01*
Y0325D01*
X02345Y0324D01*
X02365D01*
X02375Y0325D01*
Y0326D01*
X02365Y0327D01*
X02335D01*
X0317Y03985D02*
Y04045D01*
X032D01*
X0321Y04035D01*
Y04015D01*
X032Y04005D01*
X0317D01*
X0319D02*
X0321Y03985D01*
X0327Y04045D02*
X0323D01*
Y04015D01*
X0325Y04025D01*
X0326D01*
X0327Y04015D01*
Y03995D01*
X0326Y03985D01*
X0324D01*
X0323Y03995D01*
X02225Y03985D02*
Y04045D01*
X02255D01*
X02265Y04035D01*
Y04015D01*
X02255Y04005D01*
X02225D01*
X02245D02*
X02265Y03985D01*
X02315D02*
Y04045D01*
X02285Y04015D01*
X02325D01*
X0258Y04145D02*
Y04205D01*
X0261D01*
X0262Y04195D01*
Y04175D01*
X0261Y04165D01*
X0258D01*
X026D02*
X0262Y04145D01*
X0264Y04195D02*
X0265Y04205D01*
X0267D01*
X0268Y04195D01*
Y04185D01*
X0267Y04175D01*
X0266D01*
X0267D01*
X0268Y04165D01*
Y04155D01*
X0267Y04145D01*
X0265D01*
X0264Y04155D01*
X0316Y0453D02*
Y0459D01*
X0319D01*
X032Y0458D01*
Y0456D01*
X0319Y0455D01*
X0316D01*
X0318D02*
X032Y0453D01*
X0326D02*
X0322D01*
X0326Y0457D01*
Y0458D01*
X0325Y0459D01*
X0323D01*
X0322Y0458D01*
X0283Y04446D02*
Y04506D01*
X0286D01*
X0287Y04496D01*
Y04476D01*
X0286Y04466D01*
X0283D01*
X0285D02*
X0287Y04446D01*
X0289D02*
X0291D01*
X029D01*
Y04506D01*
X0289Y04496D01*
X02415Y02755D02*
Y02795D01*
X02405Y02805D01*
X02385D01*
X02375Y02795D01*
Y02755D01*
X02385Y02745D01*
X02405D01*
X02395Y02765D02*
X02415Y02745D01*
X02405D02*
X02415Y02755D01*
X02465Y02745D02*
Y02805D01*
X02435Y02775D01*
X02475D01*
X0273Y0382D02*
Y0386D01*
X0272Y0387D01*
X027D01*
X0269Y0386D01*
Y0382D01*
X027Y0381D01*
X0272D01*
X0271Y0383D02*
X0273Y0381D01*
X0272D02*
X0273Y0382D01*
X0275Y0386D02*
X0276Y0387D01*
X0278D01*
X0279Y0386D01*
Y0385D01*
X0278Y0384D01*
X0277D01*
X0278D01*
X0279Y0383D01*
Y0382D01*
X0278Y0381D01*
X0276D01*
X0275Y0382D01*
X0329Y04335D02*
Y04375D01*
X0328Y04385D01*
X0326D01*
X0325Y04375D01*
Y04335D01*
X0326Y04325D01*
X0328D01*
X0327Y04345D02*
X0329Y04325D01*
X0328D02*
X0329Y04335D01*
X0335Y04325D02*
X0331D01*
X0335Y04365D01*
Y04375D01*
X0334Y04385D01*
X0332D01*
X0331Y04375D01*
X03Y0398D02*
Y0402D01*
X0299Y0403D01*
X0297D01*
X0296Y0402D01*
Y0398D01*
X0297Y0397D01*
X0299D01*
X0298Y0399D02*
X03Y0397D01*
X0299D02*
X03Y0398D01*
X0302Y0397D02*
X0304D01*
X0303D01*
Y0403D01*
X0302Y0402D01*
X01695Y04835D02*
X01675D01*
X01685D01*
Y04785D01*
X01675Y04775D01*
X01665D01*
X01655Y04785D01*
X01715Y04835D02*
Y04775D01*
X01745D01*
X01755Y04785D01*
Y04825D01*
X01745Y04835D01*
X01715D01*
X01815Y04825D02*
X01805Y04835D01*
X01785D01*
X01775Y04825D01*
Y04785D01*
X01785Y04775D01*
X01805D01*
X01815Y04785D01*
X0362Y03185D02*
X036D01*
X0361D01*
Y03135D01*
X036Y03125D01*
X0359D01*
X0358Y03135D01*
X0368Y03125D02*
X0364D01*
X0368Y03165D01*
Y03175D01*
X0367Y03185D01*
X0365D01*
X0364Y03175D01*
X01725Y0408D02*
X01705D01*
X01715D01*
Y0403D01*
X01705Y0402D01*
X01695D01*
X01685Y0403D01*
X01745Y0402D02*
X01765D01*
X01755D01*
Y0408D01*
X01745Y0407D01*
X02715Y033D02*
Y0324D01*
X02745D01*
X02755Y0325D01*
Y0329D01*
X02745Y033D01*
X02715D01*
X02815Y0324D02*
X02775D01*
X02815Y0328D01*
Y0329D01*
X02805Y033D01*
X02785D01*
X02775Y0329D01*
X02935Y0368D02*
Y0362D01*
X02965D01*
X02975Y0363D01*
Y0367D01*
X02965Y0368D01*
X02935D01*
X02995Y0362D02*
X03015D01*
X03005D01*
Y0368D01*
X02995Y0367D01*
X0192Y0342D02*
X0191Y0343D01*
X0189D01*
X0188Y0342D01*
Y0338D01*
X0189Y0337D01*
X0191D01*
X0192Y0338D01*
X0198Y0343D02*
X0196Y0342D01*
X0194Y034D01*
Y0338D01*
X0195Y0337D01*
X0197D01*
X0198Y0338D01*
Y0339D01*
X0197Y034D01*
X0194D01*
X0268Y0438D02*
X0267Y0439D01*
X0265D01*
X0264Y0438D01*
Y0434D01*
X0265Y0433D01*
X0267D01*
X0268Y0434D01*
X0273Y0433D02*
Y0439D01*
X027Y0436D01*
X0274D01*
X02795Y0478D02*
X02785Y0479D01*
X02765D01*
X02755Y0478D01*
Y0474D01*
X02765Y0473D01*
X02785D01*
X02795Y0474D01*
X02855Y0473D02*
X02815D01*
X02855Y0477D01*
Y0478D01*
X02845Y0479D01*
X02825D01*
X02815Y0478D01*
X033Y0479D02*
X0329Y048D01*
X0327D01*
X0326Y0479D01*
Y0475D01*
X0327Y0474D01*
X0329D01*
X033Y0475D01*
X0332Y0474D02*
X0334D01*
X0333D01*
Y048D01*
X0332Y0479D01*
D14*
X028775Y035975D02*
D03*
X026425Y032225D02*
D03*
M02*
