G04*
G04 #@! TF.GenerationSoftware,Altium Limited,Altium Designer,21.0.9 (235)*
G04*
G04 Layer_Color=2752767*
%FSTAX24Y24*%
%MOIN*%
G70*
G04*
G04 #@! TF.SameCoordinates,BE33CD37-818E-4C07-995D-9A106440EC1D*
G04*
G04*
G04 #@! TF.FilePolarity,Positive*
G04*
G01*
G75*
%ADD42C,0.0020*%
%ADD43C,0.0027*%
D42*
X03877Y03447D02*
Y03463D01*
X03893D01*
Y03447D01*
X03877D01*
X03622D02*
Y03463D01*
X03638D01*
Y03447D01*
X03622D01*
X03372D02*
Y03463D01*
X03388D01*
Y03447D01*
X03372D01*
Y02807D02*
Y02823D01*
X03388D01*
Y02807D01*
X03372D01*
X03627D02*
Y02823D01*
X03643D01*
Y02807D01*
X03627D01*
X03872D02*
Y02823D01*
X03888D01*
Y02807D01*
X03872D01*
X03065Y04812D02*
X03057Y04828D01*
X03073D01*
X03065Y04812D01*
Y047136D02*
X03057Y047296D01*
X03073D01*
X03065Y047136D01*
X0333Y04457D02*
X03322Y04473D01*
X03338D01*
X0333Y04457D01*
Y04602D02*
X03322Y04618D01*
X03338D01*
X0333Y04602D01*
X03095Y04457D02*
X03099Y04461D01*
X03103D01*
X03099Y04465D01*
X03103Y04469D01*
X03099D01*
X03095Y04473D01*
X03091Y04469D01*
X03087D01*
X03091Y04465D01*
X03087Y04461D01*
X03091D01*
X03095Y04457D01*
Y04357D02*
X03099Y04361D01*
X03103D01*
X03099Y04365D01*
X03103Y04369D01*
X03099D01*
X03095Y04373D01*
X03091Y04369D01*
X03087D01*
X03091Y04365D01*
X03087Y04361D01*
X03091D01*
X03095Y04357D01*
Y04257D02*
X03099Y04261D01*
X03103D01*
X03099Y04265D01*
X03103Y04269D01*
X03099D01*
X03095Y04273D01*
X03091Y04269D01*
X03087D01*
X03091Y04265D01*
X03087Y04261D01*
X03091D01*
X03095Y04257D01*
X01452Y04602D02*
X01456Y0461D01*
X01452Y04618D01*
X0146Y04614D01*
X01468Y04618D01*
X01464Y0461D01*
X01468Y04602D01*
X0146Y04606D01*
X01452Y04602D01*
X01302Y04802D02*
X01306Y0481D01*
X01302Y04818D01*
X0131Y04814D01*
X01318Y04818D01*
X01314Y0481D01*
X01318Y04802D01*
X0131Y04806D01*
X01302Y04802D01*
X01552D02*
X01556Y0481D01*
X01552Y04818D01*
X0156Y04814D01*
X01568Y04818D01*
X01564Y0481D01*
X01568Y04802D01*
X0156Y04806D01*
X01552Y04802D01*
X01472Y03727D02*
Y03743D01*
X01488D01*
Y03727D01*
X01472D01*
X01727D02*
Y03743D01*
X01743D01*
Y03727D01*
X01727D01*
X01977D02*
Y03743D01*
X01993D01*
Y03727D01*
X01977D01*
Y04367D02*
Y04383D01*
X01993D01*
Y04367D01*
X01977D01*
X01722D02*
Y04383D01*
X01738D01*
Y04367D01*
X01722D01*
X01477D02*
Y04383D01*
X01493D01*
Y04367D01*
X01477D01*
X02575Y048154D02*
X02567Y048314D01*
X02583D01*
X02575Y048154D01*
Y04717D02*
X02567Y04733D01*
X02583D01*
X02575Y04717D01*
X0249Y043078D02*
X02482Y043238D01*
X02498D01*
X0249Y043078D01*
Y044062D02*
X02482Y044222D01*
X02498D01*
X0249Y044062D01*
X027Y04077D02*
X02692Y04093D01*
X02708D01*
X027Y04077D01*
X02555D02*
X02547Y04093D01*
X02563D01*
X02555Y04077D01*
X02875Y03882D02*
X02879Y03886D01*
X02883D01*
X02879Y0389D01*
X02883Y03894D01*
X02879D01*
X02875Y03898D01*
X02871Y03894D01*
X02867D01*
X02871Y0389D01*
X02867Y03886D01*
X02871D01*
X02875Y03882D01*
Y03982D02*
X02879Y03986D01*
X02883D01*
X02879Y0399D01*
X02883Y03994D01*
X02879D01*
X02875Y03998D01*
X02871Y03994D01*
X02867D01*
X02871Y0399D01*
X02867Y03986D01*
X02871D01*
X02875Y03982D01*
Y04082D02*
X02879Y04086D01*
X02883D01*
X02879Y0409D01*
X02883Y04094D01*
X02879D01*
X02875Y04098D01*
X02871Y04094D01*
X02867D01*
X02871Y0409D01*
X02867Y04086D01*
X02871D01*
X02875Y04082D01*
X0261Y03752D02*
X02614Y03756D01*
X02618D01*
X02614Y0376D01*
X02618Y03764D01*
X02614D01*
X0261Y03768D01*
X02606Y03764D01*
X02602D01*
X02606Y0376D01*
X02602Y03756D01*
X02606D01*
X0261Y03752D01*
Y03852D02*
X02614Y03856D01*
X02618D01*
X02614Y0386D01*
X02618Y03864D01*
X02614D01*
X0261Y03868D01*
X02606Y03864D01*
X02602D01*
X02606Y0386D01*
X02602Y03856D01*
X02606D01*
X0261Y03852D01*
Y03952D02*
X02614Y03956D01*
X02618D01*
X02614Y0396D01*
X02618Y03964D01*
X02614D01*
X0261Y03968D01*
X02606Y03964D01*
X02602D01*
X02606Y0396D01*
X02602Y03956D01*
X02606D01*
X0261Y03952D01*
X024Y03927D02*
X02392Y03943D01*
X02408D01*
X024Y03927D01*
Y04072D02*
X02392Y04088D01*
X02408D01*
X024Y04072D01*
Y03607D02*
X02392Y03623D01*
X02408D01*
X024Y03607D01*
Y03752D02*
X02392Y03768D01*
X02408D01*
X024Y03752D01*
X0256Y03637D02*
X02552Y03653D01*
X02568D01*
X0256Y03637D01*
X02705D02*
X02697Y03653D01*
X02713D01*
X02705Y03637D01*
X0245Y03182D02*
X02442Y03198D01*
X02458D01*
X0245Y03182D01*
Y03327D02*
X02442Y03343D01*
X02458D01*
X0245Y03327D01*
X02175Y034512D02*
X02167Y034672D01*
X02183D01*
X02175Y034512D01*
Y033528D02*
X02167Y033688D01*
X02183D01*
X02175Y033528D01*
X015053Y02901D02*
Y02897D01*
X015133D01*
Y02901D01*
X015173D01*
Y02909D01*
X015133D01*
Y02913D01*
X015053D01*
Y02909D01*
X015013D01*
Y02901D01*
X015053D01*
Y03101D02*
Y03097D01*
X015133D01*
Y03101D01*
X015173D01*
Y03109D01*
X015133D01*
Y03113D01*
X015053D01*
Y03109D01*
X015013D01*
Y03101D01*
X015053D01*
X015043Y03301D02*
Y03297D01*
X015123D01*
Y03301D01*
X015163D01*
Y03309D01*
X015123D01*
Y03313D01*
X015043D01*
Y03309D01*
X015003D01*
Y03301D01*
X015043D01*
X013053D02*
Y03297D01*
X013133D01*
Y03301D01*
X013173D01*
Y03309D01*
X013133D01*
Y03313D01*
X013053D01*
Y03309D01*
X013013D01*
Y03301D01*
X013053D01*
Y03102D02*
Y03098D01*
X013133D01*
Y03102D01*
X013173D01*
Y0311D01*
X013133D01*
Y03114D01*
X013053D01*
Y0311D01*
X013013D01*
Y03102D01*
X013053D01*
Y02901D02*
Y02897D01*
X013133D01*
Y02901D01*
X013173D01*
Y02909D01*
X013133D01*
Y02913D01*
X013053D01*
Y02909D01*
X013013D01*
Y02901D01*
X013053D01*
X02425Y02852D02*
X02429Y02856D01*
X02433D01*
X02429Y0286D01*
X02433Y02864D01*
X02429D01*
X02425Y02868D01*
X02421Y02864D01*
X02417D01*
X02421Y0286D01*
X02417Y02856D01*
X02421D01*
X02425Y02852D01*
Y02952D02*
X02429Y02956D01*
X02433D01*
X02429Y0296D01*
X02433Y02964D01*
X02429D01*
X02425Y02968D01*
X02421Y02964D01*
X02417D01*
X02421Y0296D01*
X02417Y02956D01*
X02421D01*
X02425Y02952D01*
Y03052D02*
X02429Y03056D01*
X02433D01*
X02429Y0306D01*
X02433Y03064D01*
X02429D01*
X02425Y03068D01*
X02421Y03064D01*
X02417D01*
X02421Y0306D01*
X02417Y03056D01*
X02421D01*
X02425Y03052D01*
X02175Y02962D02*
X02167Y02978D01*
X02183D01*
X02175Y02962D01*
Y02817D02*
X02167Y02833D01*
X02183D01*
X02175Y02817D01*
X02875Y03537D02*
X02879Y03541D01*
X02883D01*
X02879Y03545D01*
X02883Y03549D01*
X02879D01*
X02875Y03553D01*
X02871Y03549D01*
X02867D01*
X02871Y03545D01*
X02867Y03541D01*
X02871D01*
X02875Y03537D01*
Y03737D02*
X02879Y03741D01*
X02883D01*
X02879Y03745D01*
X02883Y03749D01*
X02879D01*
X02875Y03753D01*
X02871Y03749D01*
X02867D01*
X02871Y03745D01*
X02867Y03741D01*
X02871D01*
X02875Y03737D01*
X0264Y03162D02*
X02644Y03166D01*
X02648D01*
X02644Y0317D01*
X02648Y03174D01*
X02644D01*
X0264Y03178D01*
X02636Y03174D01*
X02632D01*
X02636Y0317D01*
X02632Y03166D01*
X02636D01*
X0264Y03162D01*
Y03362D02*
X02644Y03366D01*
X02648D01*
X02644Y0337D01*
X02648Y03374D01*
X02644D01*
X0264Y03378D01*
X02636Y03374D01*
X02632D01*
X02636Y0337D01*
X02632Y03366D01*
X02636D01*
X0264Y03362D01*
Y02982D02*
X02632Y02998D01*
X02648D01*
X0264Y02982D01*
Y02837D02*
X02632Y02853D01*
X02648D01*
X0264Y02837D01*
X031Y04072D02*
X03092Y04088D01*
X03108D01*
X031Y04072D01*
Y03927D02*
X03092Y03943D01*
X03108D01*
X031Y03927D01*
X0287Y04217D02*
X02862Y04233D01*
X02878D01*
X0287Y04217D01*
Y04362D02*
X02862Y04378D01*
X02878D01*
X0287Y04362D01*
D43*
X03733Y046984D02*
G03*
X03733Y046984I-00008J0D01*
G01*
Y045016D02*
G03*
X03733Y045016I-00008J0D01*
G01*
X035396Y0394D02*
G03*
X035396Y0394I-00008J0D01*
G01*
X037364D02*
G03*
X037364Y0394I-00008J0D01*
G01*
M02*
